<svg aria-roledescription="er" viewBox="0 0 540.4268188476562 510" style="max-width: 540.427px; background-color: white;" xmlns:xlink="http://www.w3.org/1999/xlink" xmlns="http://www.w3.org/2000/svg" width="100%" id="mermaid-0"><style>#mermaid-0{font-family:"trebuchet ms",verdana,arial,sans-serif;font-size:16px;fill:#000000;}#mermaid-0 .error-icon{fill:#552222;}#mermaid-0 .error-text{fill:#552222;stroke:#552222;}#mermaid-0 .edge-thickness-normal{stroke-width:2px;}#mermaid-0 .edge-thickness-thick{stroke-width:3.5px;}#mermaid-0 .edge-pattern-solid{stroke-dasharray:0;}#mermaid-0 .edge-pattern-dashed{stroke-dasharray:3;}#mermaid-0 .edge-pattern-dotted{stroke-dasharray:2;}#mermaid-0 .marker{fill:#000000;stroke:#000000;}#mermaid-0 .marker.cross{stroke:#000000;}#mermaid-0 svg{font-family:"trebuchet ms",verdana,arial,sans-serif;font-size:16px;}#mermaid-0 .entityBox{fill:#cde498;stroke:#13540c;}#mermaid-0 .attributeBoxOdd{fill:#ffffff;stroke:#13540c;}#mermaid-0 .attributeBoxEven{fill:#f2f2f2;stroke:#13540c;}#mermaid-0 .relationshipLabelBox{fill:hsl(78.1578947368, 58.4615384615%, 84.5098039216%);opacity:0.7;background-color:hsl(78.1578947368, 58.4615384615%, 84.5098039216%);}#mermaid-0 .relationshipLabelBox rect{opacity:0.5;}#mermaid-0 .relationshipLine{stroke:#000000;}#mermaid-0 .entityTitleText{text-anchor:middle;font-size:18px;fill:#000000;}#mermaid-0 :root{--mermaid-font-family:"trebuchet ms",verdana,arial,sans-serif;}</style><g/><defs><marker orient="auto" markerHeight="18" markerWidth="18" refY="9" refX="0" id="ONLY_ONE_START"><path d="M9,0 L9,18 M15,0 L15,18" fill="none" stroke="gray"/></marker></defs><defs><marker orient="auto" markerHeight="18" markerWidth="18" refY="9" refX="18" id="ONLY_ONE_END"><path d="M3,0 L3,18 M9,0 L9,18" fill="none" stroke="gray"/></marker></defs><defs><marker orient="auto" markerHeight="18" markerWidth="30" refY="9" refX="0" id="ZERO_OR_ONE_START"><circle r="6" cy="9" cx="21" fill="white" stroke="gray"/><path d="M9,0 L9,18" fill="none" stroke="gray"/></marker></defs><defs><marker orient="auto" markerHeight="18" markerWidth="30" refY="9" refX="30" id="ZERO_OR_ONE_END"><circle r="6" cy="9" cx="9" fill="white" stroke="gray"/><path d="M21,0 L21,18" fill="none" stroke="gray"/></marker></defs><defs><marker orient="auto" markerHeight="36" markerWidth="45" refY="18" refX="18" id="ONE_OR_MORE_START"><path d="M0,18 Q 18,0 36,18 Q 18,36 0,18 M42,9 L42,27" fill="none" stroke="gray"/></marker></defs><defs><marker orient="auto" markerHeight="36" markerWidth="45" refY="18" refX="27" id="ONE_OR_MORE_END"><path d="M3,9 L3,27 M9,18 Q27,0 45,18 Q27,36 9,18" fill="none" stroke="gray"/></marker></defs><defs><marker orient="auto" markerHeight="36" markerWidth="57" refY="18" refX="18" id="ZERO_OR_MORE_START"><circle r="6" cy="18" cx="48" fill="white" stroke="gray"/><path d="M0,18 Q18,0 36,18 Q18,36 0,18" fill="none" stroke="gray"/></marker></defs><defs><marker orient="auto" markerHeight="36" markerWidth="57" refY="18" refX="39" id="ZERO_OR_MORE_END"><circle r="6" cy="18" cx="9" fill="white" stroke="gray"/><path d="M21,18 Q39,0 57,18 Q39,36 21,18" fill="none" stroke="gray"/></marker></defs><path style="stroke: gray; fill: none;" marker-start="url(#ZERO_OR_MORE_START)" marker-end="url(#ONLY_ONE_END)" d="M131.146484375,278L131.146484375,286.3333333333333C131.146484375,294.6666666666667,131.146484375,311.3333333333333,154.207155863444,332.6438321671713C177.26782735188803,353.9543310010092,223.38917032877603,379.90866200201845,246.44984181722006,392.885827502523L269.51051330566406,405.8629930030276" class="er relationshipLine"/><path style="stroke: gray; fill: none;" marker-start="url(#ZERO_OR_MORE_START)" marker-end="url(#ONLY_ONE_END)" d="M81.146484375,88L81.146484375,96.33333333333333C81.146484375,104.66666666666667,81.146484375,121.33333333333333,85.5324492872807,138C89.91841419956141,154.66666666666666,98.69034402412281,171.33333333333334,103.0763089364035,179.66666666666666L107.4622738486842,188" class="er relationshipLine"/><path style="stroke: gray; fill: none;" marker-start="url(#ZERO_OR_MORE_START)" marker-end="url(#ONLY_ONE_END)" d="M353.9400177001953,77L353.9400177001953,87.16666666666667C353.9400177001953,97.33333333333333,353.9400177001953,117.66666666666667,353.9400177001953,138C353.9400177001953,158.33333333333334,353.9400177001953,178.66666666666666,353.9400177001953,188.83333333333334L353.9400177001953,199" class="er relationshipLine"/><path style="stroke: gray; fill: none;" marker-start="url(#ZERO_OR_MORE_START)" marker-end="url(#ONLY_ONE_END)" d="M309.7480458759126,77L290.2139134028601,87.16666666666667C270.67978092980763,97.33333333333333,231.61151598370262,117.66666666666667,206.69170222445737,136.16666666666666C181.7718884652121,154.66666666666666,171.00052589282654,171.33333333333334,165.61484460663377,179.66666666666666L160.229163320441,188" class="er relationshipLine"/><path style="stroke: gray; fill: none;" marker-start="url(#ZERO_OR_MORE_START)" marker-end="url(#ONLY_ONE_END)" d="M396.0887565612793,77L414.7197208404541,87.16666666666667C433.3506851196289,97.33333333333333,470.6126136779785,117.66666666666667,489.2435779571533,143.66666666666666C507.8745422363281,169.66666666666666,507.8745422363281,201.33333333333334,507.8745422363281,233C507.8745422363281,264.6666666666667,507.8745422363281,296.3333333333333,484.8138707478841,325.1438321671713C461.7531992594401,353.9543310010092,415.63185628255206,379.90866200201845,392.5711847941081,392.885827502523L369.51051330566406,405.8629930030276" class="er relationshipLine"/><g transform="translate(62.2874755859375,188 )" id="entity-habits-4d7ce505-81fe-4882-92c2-28ca0637b8e0"><rect height="90" width="137.718017578125" y="0" x="0" class="er entityBox"/><text style="dominant-baseline: middle; text-anchor: middle; font-size: 12px;" transform="translate(68.8590087890625,12)" y="0" x="0" id="text-entity-habits-4d7ce505-81fe-4882-92c2-28ca0637b8e0" class="er entityLabel">habits</text><rect height="22" width="54.095550537109375" y="24" x="0" class="er attributeBoxOdd"/><text style="dominant-baseline: middle; font-size: 10.2px;" transform="translate(5,35)" y="0" x="0" id="text-entity-habits-4d7ce505-81fe-4882-92c2-28ca0637b8e0-attr-1-type" class="er entityLabel">String</text><rect height="22" width="60.934783935546875" y="24" x="54.095550537109375" class="er attributeBoxOdd"/><text style="dominant-baseline: middle; font-size: 10.2px;" transform="translate(59.095550537109375,35)" y="0" x="0" id="text-entity-habits-4d7ce505-81fe-4882-92c2-28ca0637b8e0-attr-1-name" class="er entityLabel">id</text><rect height="22" width="22.68768310546875" y="24" x="115.03033447265625" class="er attributeBoxOdd"/><text style="dominant-baseline: middle; font-size: 10.2px;" transform="translate(120.03033447265625,35)" y="0" x="0" id="text-entity-habits-4d7ce505-81fe-4882-92c2-28ca0637b8e0-attr-1-key" class="er entityLabel">PK</text><rect height="22" width="54.095550537109375" y="46" x="0" class="er attributeBoxEven"/><text style="dominant-baseline: middle; font-size: 10.2px;" transform="translate(5,57)" y="0" x="0" id="text-entity-habits-4d7ce505-81fe-4882-92c2-28ca0637b8e0-attr-2-type" class="er entityLabel">String</text><rect height="22" width="60.934783935546875" y="46" x="54.095550537109375" class="er attributeBoxEven"/><text style="dominant-baseline: middle; font-size: 10.2px;" transform="translate(59.095550537109375,57)" y="0" x="0" id="text-entity-habits-4d7ce505-81fe-4882-92c2-28ca0637b8e0-attr-2-name" class="er entityLabel">title</text><rect height="22" width="22.68768310546875" y="46" x="115.03033447265625" class="er attributeBoxEven"/><text style="dominant-baseline: middle; font-size: 10.2px;" transform="translate(120.03033447265625,57)" y="0" x="0" id="text-entity-habits-4d7ce505-81fe-4882-92c2-28ca0637b8e0-attr-2-key" class="er entityLabel"/><rect height="22" width="54.095550537109375" y="68" x="0" class="er attributeBoxOdd"/><text style="dominant-baseline: middle; font-size: 10.2px;" transform="translate(5,79)" y="0" x="0" id="text-entity-habits-4d7ce505-81fe-4882-92c2-28ca0637b8e0-attr-3-type" class="er entityLabel">DateTime</text><rect height="22" width="60.934783935546875" y="68" x="54.095550537109375" class="er attributeBoxOdd"/><text style="dominant-baseline: middle; font-size: 10.2px;" transform="translate(59.095550537109375,79)" y="0" x="0" id="text-entity-habits-4d7ce505-81fe-4882-92c2-28ca0637b8e0-attr-3-name" class="er entityLabel">created_at</text><rect height="22" width="22.68768310546875" y="68" x="115.03033447265625" class="er attributeBoxOdd"/><text style="dominant-baseline: middle; font-size: 10.2px;" transform="translate(120.03033447265625,79)" y="0" x="0" id="text-entity-habits-4d7ce505-81fe-4882-92c2-28ca0637b8e0-attr-3-key" class="er entityLabel"/></g><g transform="translate(20,20 )" id="entity-habitweekdays-3c45d1e5-b62d-4181-917c-ea4f8d2c632a"><rect height="68" width="122.29296875" y="0" x="0" class="er entityBox"/><text style="dominant-baseline: middle; text-anchor: middle; font-size: 12px;" transform="translate(61.146484375,12)" y="0" x="0" id="text-entity-habitweekdays-3c45d1e5-b62d-4181-917c-ea4f8d2c632a" class="er entityLabel">habit_week_days</text><rect height="22" width="39.0484364827474" y="24" x="0" class="er attributeBoxOdd"/><text style="dominant-baseline: middle; font-size: 10.2px;" transform="translate(5,35)" y="0" x="0" id="text-entity-habitweekdays-3c45d1e5-b62d-4181-917c-ea4f8d2c632a-attr-1-type" class="er entityLabel">String</text><rect height="22" width="58.90446980794271" y="24" x="39.0484364827474" class="er attributeBoxOdd"/><text style="dominant-baseline: middle; font-size: 10.2px;" transform="translate(44.0484364827474,35)" y="0" x="0" id="text-entity-habitweekdays-3c45d1e5-b62d-4181-917c-ea4f8d2c632a-attr-1-name" class="er entityLabel">id</text><rect height="22" width="24.340062459309895" y="24" x="97.95290629069011" class="er attributeBoxOdd"/><text style="dominant-baseline: middle; font-size: 10.2px;" transform="translate(102.95290629069011,35)" y="0" x="0" id="text-entity-habitweekdays-3c45d1e5-b62d-4181-917c-ea4f8d2c632a-attr-1-key" class="er entityLabel">PK</text><rect height="22" width="39.0484364827474" y="46" x="0" class="er attributeBoxEven"/><text style="dominant-baseline: middle; font-size: 10.2px;" transform="translate(5,57)" y="0" x="0" id="text-entity-habitweekdays-3c45d1e5-b62d-4181-917c-ea4f8d2c632a-attr-2-type" class="er entityLabel">Int</text><rect height="22" width="58.90446980794271" y="46" x="39.0484364827474" class="er attributeBoxEven"/><text style="dominant-baseline: middle; font-size: 10.2px;" transform="translate(44.0484364827474,57)" y="0" x="0" id="text-entity-habitweekdays-3c45d1e5-b62d-4181-917c-ea4f8d2c632a-attr-2-name" class="er entityLabel">week_day</text><rect height="22" width="24.340062459309895" y="46" x="97.95290629069011" class="er attributeBoxEven"/><text style="dominant-baseline: middle; font-size: 10.2px;" transform="translate(102.95290629069011,57)" y="0" x="0" id="text-entity-habitweekdays-3c45d1e5-b62d-4181-917c-ea4f8d2c632a-attr-2-key" class="er entityLabel"/></g><g transform="translate(300.0054931640625,199 )" id="entity-days-b4468b76-d1f3-42fb-a397-09d8afd4690b"><rect height="68" width="107.86904907226562" y="0" x="0" class="er entityBox"/><text style="dominant-baseline: middle; text-anchor: middle; font-size: 12px;" transform="translate(53.93452453613281,12)" y="0" x="0" id="text-entity-days-b4468b76-d1f3-42fb-a397-09d8afd4690b" class="er entityLabel">days</text><rect height="22" width="54.095550537109375" y="24" x="0" class="er attributeBoxOdd"/><text style="dominant-baseline: middle; font-size: 10.2px;" transform="translate(5,35)" y="0" x="0" id="text-entity-days-b4468b76-d1f3-42fb-a397-09d8afd4690b-attr-1-type" class="er entityLabel">String</text><rect height="22" width="31.0858154296875" y="24" x="54.095550537109375" class="er attributeBoxOdd"/><text style="dominant-baseline: middle; font-size: 10.2px;" transform="translate(59.095550537109375,35)" y="0" x="0" id="text-entity-days-b4468b76-d1f3-42fb-a397-09d8afd4690b-attr-1-name" class="er entityLabel">id</text><rect height="22" width="22.68768310546875" y="24" x="85.18136596679688" class="er attributeBoxOdd"/><text style="dominant-baseline: middle; font-size: 10.2px;" transform="translate(90.18136596679688,35)" y="0" x="0" id="text-entity-days-b4468b76-d1f3-42fb-a397-09d8afd4690b-attr-1-key" class="er entityLabel">PK</text><rect height="22" width="54.095550537109375" y="46" x="0" class="er attributeBoxEven"/><text style="dominant-baseline: middle; font-size: 10.2px;" transform="translate(5,57)" y="0" x="0" id="text-entity-days-b4468b76-d1f3-42fb-a397-09d8afd4690b-attr-2-type" class="er entityLabel">DateTime</text><rect height="22" width="31.0858154296875" y="46" x="54.095550537109375" class="er attributeBoxEven"/><text style="dominant-baseline: middle; font-size: 10.2px;" transform="translate(59.095550537109375,57)" y="0" x="0" id="text-entity-days-b4468b76-d1f3-42fb-a397-09d8afd4690b-attr-2-name" class="er entityLabel">date</text><rect height="22" width="22.68768310546875" y="46" x="85.18136596679688" class="er attributeBoxEven"/><text style="dominant-baseline: middle; font-size: 10.2px;" transform="translate(90.18136596679688,57)" y="0" x="0" id="text-entity-days-b4468b76-d1f3-42fb-a397-09d8afd4690b-attr-2-key" class="er entityLabel"/></g><g transform="translate(303.9400177001953,31 )" id="entity-dayhabits-828b46db-5460-4e58-91a4-3d816aa90719"><rect height="46" width="100" y="0" x="0" class="er entityBox"/><text style="dominant-baseline: middle; text-anchor: middle; font-size: 12px;" transform="translate(50,12)" y="0" x="0" id="text-entity-dayhabits-828b46db-5460-4e58-91a4-3d816aa90719" class="er entityLabel">day_habits</text><rect height="22" width="44.39861551920573" y="24" x="0" class="er attributeBoxOdd"/><text style="dominant-baseline: middle; font-size: 10.2px;" transform="translate(5,35)" y="0" x="0" id="text-entity-dayhabits-828b46db-5460-4e58-91a4-3d816aa90719-attr-1-type" class="er entityLabel">String</text><rect height="22" width="25.911142985026043" y="24" x="44.39861551920573" class="er attributeBoxOdd"/><text style="dominant-baseline: middle; font-size: 10.2px;" transform="translate(49.39861551920573,35)" y="0" x="0" id="text-entity-dayhabits-828b46db-5460-4e58-91a4-3d816aa90719-attr-1-name" class="er entityLabel">id</text><rect height="22" width="29.69024149576823" y="24" x="70.30975850423177" class="er attributeBoxOdd"/><text style="dominant-baseline: middle; font-size: 10.2px;" transform="translate(75.30975850423177,35)" y="0" x="0" id="text-entity-dayhabits-828b46db-5460-4e58-91a4-3d816aa90719-attr-1-key" class="er entityLabel">PK</text></g><g transform="translate(269.51051330566406,378 )" id="entity-User-8cf503ad-dd06-4125-a4c1-eb75f35ae6fc"><rect height="112" width="100" y="0" x="0" class="er entityBox"/><text style="dominant-baseline: middle; text-anchor: middle; font-size: 12px;" transform="translate(50,12)" y="0" x="0" id="text-entity-User-8cf503ad-dd06-4125-a4c1-eb75f35ae6fc" class="er entityLabel">User</text><rect height="22" width="38.443644205729164" y="24" x="0" class="er attributeBoxOdd"/><text style="dominant-baseline: middle; font-size: 10.2px;" transform="translate(5,35)" y="0" x="0" id="text-entity-User-8cf503ad-dd06-4125-a4c1-eb75f35ae6fc-attr-1-type" class="er entityLabel">String</text><rect height="22" width="37.821085611979164" y="24" x="38.443644205729164" class="er attributeBoxOdd"/><text style="dominant-baseline: middle; font-size: 10.2px;" transform="translate(43.443644205729164,35)" y="0" x="0" id="text-entity-User-8cf503ad-dd06-4125-a4c1-eb75f35ae6fc-attr-1-name" class="er entityLabel">id</text><rect height="22" width="23.735270182291668" y="24" x="76.26472981770833" class="er attributeBoxOdd"/><text style="dominant-baseline: middle; font-size: 10.2px;" transform="translate(81.26472981770833,35)" y="0" x="0" id="text-entity-User-8cf503ad-dd06-4125-a4c1-eb75f35ae6fc-attr-1-key" class="er entityLabel">PK</text><rect height="22" width="38.443644205729164" y="46" x="0" class="er attributeBoxEven"/><text style="dominant-baseline: middle; font-size: 10.2px;" transform="translate(5,57)" y="0" x="0" id="text-entity-User-8cf503ad-dd06-4125-a4c1-eb75f35ae6fc-attr-2-type" class="er entityLabel">String</text><rect height="22" width="37.821085611979164" y="46" x="38.443644205729164" class="er attributeBoxEven"/><text style="dominant-baseline: middle; font-size: 10.2px;" transform="translate(43.443644205729164,57)" y="0" x="0" id="text-entity-User-8cf503ad-dd06-4125-a4c1-eb75f35ae6fc-attr-2-name" class="er entityLabel">name</text><rect height="22" width="23.735270182291668" y="46" x="76.26472981770833" class="er attributeBoxEven"/><text style="dominant-baseline: middle; font-size: 10.2px;" transform="translate(81.26472981770833,57)" y="0" x="0" id="text-entity-User-8cf503ad-dd06-4125-a4c1-eb75f35ae6fc-attr-2-key" class="er entityLabel"/><rect height="22" width="38.443644205729164" y="68" x="0" class="er attributeBoxOdd"/><text style="dominant-baseline: middle; font-size: 10.2px;" transform="translate(5,79)" y="0" x="0" id="text-entity-User-8cf503ad-dd06-4125-a4c1-eb75f35ae6fc-attr-3-type" class="er entityLabel">String</text><rect height="22" width="37.821085611979164" y="68" x="38.443644205729164" class="er attributeBoxOdd"/><text style="dominant-baseline: middle; font-size: 10.2px;" transform="translate(43.443644205729164,79)" y="0" x="0" id="text-entity-User-8cf503ad-dd06-4125-a4c1-eb75f35ae6fc-attr-3-name" class="er entityLabel">photo</text><rect height="22" width="23.735270182291668" y="68" x="76.26472981770833" class="er attributeBoxOdd"/><text style="dominant-baseline: middle; font-size: 10.2px;" transform="translate(81.26472981770833,79)" y="0" x="0" id="text-entity-User-8cf503ad-dd06-4125-a4c1-eb75f35ae6fc-attr-3-key" class="er entityLabel"/><rect height="22" width="38.443644205729164" y="90" x="0" class="er attributeBoxEven"/><text style="dominant-baseline: middle; font-size: 10.2px;" transform="translate(5,101)" y="0" x="0" id="text-entity-User-8cf503ad-dd06-4125-a4c1-eb75f35ae6fc-attr-4-type" class="er entityLabel">String</text><rect height="22" width="37.821085611979164" y="90" x="38.443644205729164" class="er attributeBoxEven"/><text style="dominant-baseline: middle; font-size: 10.2px;" transform="translate(43.443644205729164,101)" y="0" x="0" id="text-entity-User-8cf503ad-dd06-4125-a4c1-eb75f35ae6fc-attr-4-name" class="er entityLabel">email</text><rect height="22" width="23.735270182291668" y="90" x="76.26472981770833" class="er attributeBoxEven"/><text style="dominant-baseline: middle; font-size: 10.2px;" transform="translate(81.26472981770833,101)" y="0" x="0" id="text-entity-User-8cf503ad-dd06-4125-a4c1-eb75f35ae6fc-attr-4-key" class="er entityLabel"/></g><rect height="14" width="23.958984375" y="348.3646545410156" x="172.0333251953125" class="er relationshipLabelBox"/><text style="text-anchor: middle; dominant-baseline: middle; font-size: 12px;" y="355.3646545410156" x="184.0128173828125" id="rel1" class="er relationshipLabel">user</text><rect height="14" width="27.96875" y="133.108642578125" x="72.1260757446289" class="er relationshipLabelBox"/><text style="text-anchor: middle; dominant-baseline: middle; font-size: 12px;" y="140.108642578125" x="86.1104507446289" id="rel2" class="er relationshipLabel">habit</text><rect height="14" width="19.990234375" y="131" x="343.9449157714844" class="er relationshipLabelBox"/><text style="text-anchor: middle; dominant-baseline: middle; font-size: 12px;" y="138" x="353.9400329589844" id="rel3" class="er relationshipLabel">day</text><rect height="14.000007629394531" width="27.96875" y="115.5025520324707" x="212.93704223632812" class="er relationshipLabelBox"/><text style="text-anchor: middle; dominant-baseline: middle; font-size: 12px;" y="122.50255584716797" x="226.92141723632812" id="rel4" class="er relationshipLabel">habit</text><rect height="14" width="23.958984375" y="241.15040588378906" x="495.80084228515625" class="er relationshipLabelBox"/><text style="text-anchor: middle; dominant-baseline: middle; font-size: 12px;" y="248.15040588378906" x="507.78033447265625" id="rel5" class="er relationshipLabel">user</text></svg>